<svg width="20" height="23" viewBox="0 0 20 23" fill="none" xmlns="http://www.w3.org/2000/svg">
<path d="M4.54494 4.85049L4.71108 4.70147V4.47829V1.92473C4.71108 1.14285 5.35346 0.5 6.14909 0.5H16.5325C17.9867 0.5 19.1961 1.72423 19.1961 3.26003V19.7056C19.1961 21.2414 17.9867 22.4656 16.5325 22.4656H3.16356C1.70929 22.4656 0.5 21.2414 0.5 19.7056V8.47874L4.54494 4.85049ZM14.6625 1.67709L15.3986 0.84564H14.2881H6.14909C5.55468 0.84564 5.06613 1.32597 5.06613 1.92473V3.74082V4.24082H5.56613H12.1674H12.3925L12.5418 4.07227L14.6625 1.67709ZM16.7272 19.2561L17.0845 18.9013L16.7272 18.5465L14.7971 16.6296V10.2917L16.7272 8.37504L17.0845 8.02028L16.7273 7.6655L15.7692 6.7139L15.4168 6.36398L15.0645 6.71385L13.1328 8.63197H6.74353L4.81201 6.71387L4.45966 6.36396L4.10734 6.7139L3.14928 7.6655L2.79208 8.02029L3.14932 8.37504L5.07955 10.2918V16.6295L3.1493 18.5465L2.79207 18.9013L3.14932 19.2561L4.10738 20.2075L4.45971 20.5574L4.81202 20.2075L6.74389 18.2889H13.1326L15.0645 20.2075L15.4168 20.5574L15.7691 20.2075L16.7272 19.2561Z" stroke="#002C5F"/>
</svg>
