<svg width="24" height="24" viewBox="0 0 24 24" fill="none" xmlns="http://www.w3.org/2000/svg">
<g clip-path="url(#clip0_1718_100)">
<path d="M23.794 0.205945C23.5195 -0.0686484 23.0742 -0.0686484 22.7996 0.205945L20.7517 2.25391C20.6257 2.19391 20.4929 2.14559 20.3542 2.11094L13.9899 0.538617C13.2753 0.359976 12.5077 0.572554 11.9867 1.09348L0.616818 12.4446C-0.205606 13.2671 -0.205606 14.6054 0.616818 15.4279L8.57217 23.3831C9.39461 24.2056 10.7329 24.2056 11.5554 23.3831L22.9066 12.0133C23.4275 11.4923 23.6401 10.7247 23.4614 10.01L21.8891 3.64577C21.8545 3.50711 21.8061 3.37422 21.7461 3.24832L23.7941 1.20035C24.0687 0.925756 24.0687 0.480539 23.794 0.205945ZM22.097 10.3511C22.1566 10.5894 22.0857 10.8452 21.9121 11.0189L10.5609 22.3887C10.2867 22.6629 9.84063 22.6629 9.56646 22.3887L1.61118 14.4334C1.33701 14.1592 1.33701 13.7132 1.61118 13.439L12.9811 2.08788C13.1141 1.95489 13.2953 1.88219 13.4799 1.88219C13.5364 1.88219 13.5931 1.88899 13.6489 1.90292L19.6268 3.37868L17.9335 5.07203C17.1495 4.69863 16.1811 4.8356 15.533 5.48369C14.7105 6.30621 14.7105 7.64444 15.533 8.46695C15.9442 8.87817 16.4844 9.08381 17.0246 9.08381C17.5648 9.08381 18.105 8.87823 18.5162 8.46695C19.1644 7.81876 19.3014 6.85042 18.9279 6.06644L20.6212 4.37308L22.097 10.3511ZM17.5218 7.47259C17.2477 7.74669 16.8016 7.74676 16.5274 7.47259C16.2533 7.19848 16.2533 6.75234 16.5274 6.47817C16.6645 6.34105 16.8445 6.2726 17.0246 6.2726C17.2046 6.2726 17.3847 6.34112 17.5217 6.47817H17.5218L17.5218 6.47823C17.796 6.75234 17.7959 7.19848 17.5218 7.47259Z" fill="white"/>
<path d="M11.5553 8.46698C10.7329 7.64447 9.39454 7.64447 8.57203 8.46698C7.74959 9.28942 7.74959 10.6277 8.57203 11.4502C9.39454 12.2727 10.7329 12.2727 11.5553 11.4502C12.3778 10.6277 12.3778 9.28948 11.5553 8.46698ZM10.5609 10.4558C10.2868 10.7299 9.84069 10.7299 9.56652 10.4558C9.29241 10.1816 9.29235 9.7355 9.56652 9.4614C9.84069 9.18723 10.2867 9.18723 10.5609 9.4614C10.835 9.7355 10.835 10.1816 10.5609 10.4558Z" fill="white"/>
<path d="M12.5497 15.4279C11.7253 14.6035 10.391 14.6034 9.56651 15.4279C8.74394 16.2504 8.74394 17.5887 9.56651 18.4112C10.3909 19.2356 11.7252 19.2357 12.5497 18.4112C13.3722 17.5887 13.3722 16.2504 12.5497 15.4279ZM11.5553 17.4167C11.2806 17.6915 10.8357 17.6916 10.5609 17.4167C10.2868 17.1426 10.2868 16.6965 10.5609 16.4224C10.8357 16.1476 11.2805 16.1475 11.5553 16.4224C11.8295 16.6965 11.8295 17.1426 11.5553 17.4167Z" fill="white"/>
<path d="M15.7346 12.8641C15.6917 12.4781 15.344 12.2 14.9581 12.2429L6.00842 13.2373C5.62244 13.2802 5.34429 13.6278 5.38718 14.0138C5.42716 14.3734 5.73157 14.6394 6.0852 14.6394C6.11112 14.6394 6.13737 14.638 6.16371 14.6351L15.1135 13.6406C15.4994 13.5977 15.7776 13.2501 15.7346 12.8641Z" fill="white"/>
</g>
<defs>
<clipPath id="clip0_1718_100">
<rect width="24" height="24" fill="white"/>
</clipPath>
</defs>
</svg>
