<svg width="24" height="24" viewBox="0 0 24 24" fill="none" xmlns="http://www.w3.org/2000/svg">
<path d="M23.1178 9.89199L23.1171 9.89215C22.607 10.0195 22.0726 9.99209 21.5829 9.80366C20.2699 9.29927 19.6142 7.82174 20.117 6.50986L20.1174 6.50892C20.3102 6.00898 20.6561 5.58885 21.1111 5.29292L21.1123 5.29213C21.1521 5.26637 21.179 5.22545 21.187 5.1791L21.1874 5.17685C21.1957 5.12954 21.184 5.08136 21.1554 5.04366L21.1552 5.0435C20.4439 4.10506 19.5958 3.28599 18.6369 2.60903L18.9253 2.20056M23.1178 9.89199L2.25159 14.5989C1.85456 14.4465 1.4196 14.4241 1.00069 14.534L0.876614 14.0497C0.876307 14.0497 0.875999 14.0498 0.875691 14.0499C0.825245 14.0626 0.77541 14.0535 0.736568 14.0285C0.695326 14.0017 0.667593 13.9591 0.659621 13.9121L0.659587 13.9119C0.462983 12.7557 0.447915 11.5722 0.615044 10.3936C0.621679 10.3471 0.64758 10.3043 0.68794 10.2761C0.728295 10.2486 0.778189 10.2393 0.824418 10.2496L0.825604 10.2498C1.35732 10.367 1.91198 10.3142 2.4114 10.093L2.41213 10.0926C3.03325 9.81636 3.51212 9.31276 3.75584 8.67797L3.75586 8.67792C3.99946 8.04321 3.98076 7.34891 3.70454 6.72792L3.70453 6.72789C3.49089 6.24771 3.13843 5.85009 2.68645 5.57964L2.42972 6.0087M23.1178 9.89199C23.164 9.88037 23.2128 9.88791 23.2546 9.91449M23.1178 9.89199L23.2546 9.91449M18.9253 2.20056L18.6376 2.60949C18.6002 2.58315 18.5506 2.57168 18.5001 2.58132C18.4542 2.59143 18.4135 2.62016 18.3884 2.66097C18.1187 3.10705 17.7235 3.45525 17.2474 3.66658C16.9197 3.81244 16.5711 3.88764 16.2127 3.88764C15.2051 3.88764 14.2916 3.29338 13.8825 2.37411L13.8824 2.37388C13.6641 1.88284 13.6083 1.34309 13.7185 0.816953L13.7187 0.816339C13.7282 0.770831 13.7191 0.721672 13.691 0.680292C13.6631 0.6417 13.6211 0.616605 13.5744 0.610181L13.5733 0.610031C12.4096 0.447564 11.2199 0.465358 10.0752 0.661142L10.0749 0.661188C10.0283 0.669137 9.98654 0.695993 9.95902 0.73775L9.95901 0.737769C9.93266 0.777749 9.92455 0.826309 9.93572 0.871383L9.93588 0.872022C10.0611 1.38014 10.0285 1.90664 9.84187 2.39204M18.9253 2.20056C18.7728 2.09326 18.5823 2.05475 18.3996 2.09151L21.7625 9.33701C20.7074 8.93189 20.1796 7.74357 20.5839 6.68882C20.7376 6.29026 21.014 5.95253 21.3837 5.71204C21.5409 5.61043 21.6482 5.44791 21.6798 5.26358C21.7122 5.07962 21.6667 4.89041 21.5537 4.74146C20.8113 3.76205 19.9261 2.90709 18.9253 2.20056ZM9.84187 2.39204C9.46632 3.37212 8.51123 4.02827 7.46249 4.02827C7.14897 4.02827 6.84185 3.97001 6.54855 3.85758L6.54805 3.85738C6.04667 3.66457 5.62569 3.31784 5.33001 2.86142L5.32923 2.86022C5.30363 2.82046 5.26267 2.79323 5.21619 2.78505L5.21617 2.78505C5.16783 2.77654 5.11873 2.78856 5.08083 2.81701C4.13867 3.52529 3.3156 4.3715 2.63416 5.33106L2.63411 5.33113C2.6067 5.36971 2.59632 5.41908 2.60627 5.46627L2.60635 5.46666C2.61619 5.51354 2.64572 5.55516 2.68729 5.58015L2.42972 6.0087M9.84187 2.39204C9.8419 2.39194 9.84194 2.39184 9.84198 2.39174L9.37506 2.21289L9.84171 2.39243C9.84177 2.3923 9.84181 2.39217 9.84187 2.39204ZM2.42972 6.0087C2.79349 6.22636 3.07599 6.54519 3.2477 6.93113M2.42972 6.0087C2.26939 5.91234 2.15553 5.75289 2.11701 5.56936C2.07843 5.38627 2.11789 5.19443 2.2265 5.04155L3.2477 6.93113M18.2785 21.375L18.7025 21.11C18.4066 20.6366 17.9791 20.2762 17.465 20.078L17.4635 20.0774C17.1725 19.9662 16.8655 19.9074 16.5518 19.9074C15.5021 19.9074 14.5473 20.564 14.1707 21.543C13.9771 22.045 13.9538 22.5907 14.0949 23.115C14.1075 23.1621 14.1001 23.2117 14.0736 23.2536C14.0478 23.2938 14.0055 23.322 13.9571 23.3305C13.3172 23.4416 12.6618 23.4986 12.0109 23.4986C11.4845 23.4986 10.9506 23.4609 10.4252 23.3878L10.4248 23.3877C10.3788 23.3814 10.335 23.355 10.3067 23.3139L10.3064 23.3135C10.2791 23.274 10.2703 23.2249 10.281 23.18L10.2818 23.1766C10.4082 22.6318 10.3575 22.0717 10.1306 21.5617C9.72141 20.6415 8.80655 20.048 7.79964 20.048C7.44236 20.048 7.09396 20.1227 6.76541 20.2683L6.76452 20.2687C6.27234 20.4881 5.86816 20.8533 5.59703 21.3223C5.57285 21.3638 5.53148 21.394 5.4844 21.4044L5.48211 21.4049C5.43703 21.415 5.38849 21.4058 5.34802 21.3771L5.34724 21.3765C4.38125 20.6943 3.52956 19.8662 2.81524 18.9161C2.78598 18.8766 2.77445 18.8274 2.78303 18.7789C2.79226 18.7319 2.82027 18.6906 2.86227 18.6642C2.86238 18.6641 2.86249 18.6641 2.8626 18.664L2.59741 18.2401L20.3083 17.2085C20.5245 17.6977 20.8877 18.1 21.3502 18.3698L21.6021 17.9379M18.2785 21.375L18.7009 21.1075C18.729 21.1519 18.7721 21.1798 18.8174 21.188L18.8186 21.1882C18.8658 21.1969 18.9148 21.1853 18.9528 21.1565L18.9534 21.156C19.9004 20.4391 20.7243 19.5852 21.4031 18.6186L21.4035 18.618C21.4313 18.5785 21.4411 18.5303 21.4307 18.4827L21.9192 18.3759M18.2785 21.375C18.3797 21.5348 18.5422 21.6461 18.7279 21.6799C18.9127 21.714 19.1046 21.669 19.2552 21.5546C20.2434 20.8065 21.1036 19.9151 21.8123 18.9059C21.9209 18.7517 21.9595 18.5603 21.9192 18.3759M18.2785 21.375C18.0376 20.9896 17.6941 20.7022 17.2851 20.5445C17.049 20.4543 16.8024 20.4074 16.5518 20.4074C15.7091 20.4074 14.9396 20.9365 14.6373 21.7227L20.7654 17.0059C20.9384 17.3974 21.2289 17.7202 21.6021 17.9379M21.9192 18.3759L21.4308 18.4831C21.4201 18.4342 21.3896 18.393 21.349 18.3691L21.6021 17.9379M21.9192 18.3759C21.8789 18.1923 21.7641 18.033 21.6021 17.9379M3.2477 6.93113C3.47018 7.4313 3.48506 7.98808 3.28906 8.49875L3.2477 6.93113ZM14.3003 17.1685L14.3003 17.1685C13.5711 17.493 12.7972 17.6575 12.0033 17.6575C9.76915 17.6575 7.73902 16.3395 6.83084 14.2987L6.83079 14.2986C5.56328 11.4483 6.84919 8.09774 9.70085 6.82943L14.3003 17.1685ZM14.3003 17.1685C17.1507 15.8998 18.4387 12.5498 17.1704 9.69915L17.1704 9.69911M14.3003 17.1685L17.1704 9.69911M17.1704 9.69911C16.2622 7.65838 14.2322 6.33981 11.998 6.33981C11.2042 6.33981 10.4305 6.50443 9.70117 6.82929L17.1704 9.69911ZM23.2546 9.91449C23.2947 9.94108 23.3223 9.98315 23.3306 10.0303L23.823 9.94361L23.3304 10.0296L23.2546 9.91449ZM21.6012 13.8443C20.3174 14.4151 19.7382 15.9239 20.3081 17.208L21.6012 13.8443Z" stroke="#002C5F"/>
</svg>
