<svg width="25" height="26" viewBox="0 0 25 26" fill="none" xmlns="http://www.w3.org/2000/svg">
<path d="M24.9468 19.4824C24.8761 19.2681 24.4262 18.9524 23.5974 18.5361C23.3729 18.4048 23.053 18.2265 22.639 18.0003C22.2247 17.774 21.8486 17.5655 21.5115 17.375C21.1736 17.1846 20.8571 17 20.5614 16.8217C20.5141 16.786 20.3662 16.682 20.1176 16.509C19.8688 16.3365 19.6589 16.2084 19.487 16.1249C19.3154 16.0419 19.1466 16.0001 18.9808 16.0001C18.7441 16.0001 18.4485 16.1699 18.0935 16.509C17.7385 16.8485 17.4128 17.2173 17.117 17.6165C16.8212 18.0155 16.5074 18.3842 16.1763 18.7236C15.8447 19.063 15.5722 19.2326 15.3594 19.2326C15.2525 19.2326 15.1193 19.2026 14.9597 19.1435C14.8001 19.084 14.6787 19.0331 14.5953 18.992C14.5128 18.95 14.371 18.8669 14.1696 18.7415C13.9679 18.6165 13.8557 18.548 13.832 18.5361C12.2104 17.631 10.8195 16.5952 9.65933 15.4289C8.49949 14.2619 7.46945 12.8632 6.56983 11.2321C6.55801 11.2082 6.48978 11.0951 6.36558 10.8928C6.2412 10.6903 6.15829 10.5476 6.11687 10.4641C6.07545 10.3808 6.02514 10.2587 5.96606 10.098C5.90697 9.93736 5.87731 9.80351 5.87731 9.69623C5.87731 9.48207 6.04604 9.2081 6.38343 8.87472C6.72077 8.54152 7.08783 8.2259 7.48425 7.92848C7.88098 7.63106 8.24767 7.30356 8.58513 6.94653C8.92247 6.58932 9.09113 6.29184 9.09113 6.05377C9.09113 5.88721 9.04971 5.71739 8.96693 5.54482C8.88409 5.37187 8.75685 5.16083 8.58513 4.9107C8.41335 4.66069 8.3098 4.51201 8.27423 4.46416C8.09685 4.16674 7.91357 3.84831 7.72394 3.50898C7.53432 3.16972 7.32734 2.79155 7.10232 2.37491C6.8775 1.95846 6.70006 1.6369 6.5697 1.41072C6.15562 0.577512 5.84198 0.12491 5.62885 0.0537293C5.54594 0.018014 5.42156 0 5.256 0C4.9362 0 4.51901 0.0594212 4.00411 0.178639C3.48903 0.297669 3.08372 0.422516 2.78774 0.553681C2.19585 0.803563 1.56851 1.52975 0.905531 2.732C0.301823 3.85087 0 4.9583 0 6.05346C0 6.37465 0.0207103 6.68714 0.0621309 6.991C0.103551 7.29455 0.177561 7.63688 0.284222 8.01793C0.390697 8.39885 0.476585 8.68182 0.541515 8.86609C0.606507 9.05048 0.727845 9.3808 0.905469 9.85717C1.08284 10.3334 1.1895 10.625 1.22502 10.7321C1.63928 11.8989 2.13055 12.9405 2.69868 13.8573C3.63344 15.3811 4.90908 16.9559 6.52486 18.581C8.1407 20.206 9.70622 21.4889 11.2215 22.4294C12.1329 23.0007 13.169 23.4947 14.329 23.9117C14.4356 23.9472 14.7255 24.0542 15.1988 24.2332C15.6723 24.4118 16.0009 24.5338 16.1843 24.5993C16.3677 24.6648 16.6491 24.7513 17.0275 24.8585C17.4068 24.9658 17.7469 25.0402 18.0487 25.0822C18.3507 25.1233 18.6615 25.1445 18.9809 25.1445C20.0698 25.1445 21.171 24.8408 22.2837 24.2337C23.4789 23.5672 24.2008 22.9361 24.4494 22.3404C24.5801 22.043 24.704 21.6353 24.8223 21.1173C24.941 20.5995 25 20.18 25 19.8584C25.0004 19.6912 24.9825 19.5664 24.9468 19.4824Z" fill="white"/>
</svg>
