<svg width="57" height="61" viewBox="0 0 57 61" fill="none" xmlns="http://www.w3.org/2000/svg">
<path d="M4.64539 28.4746H21.097V52.5001H4.64539V28.4746Z" stroke="white" stroke-width="2" stroke-linecap="round" stroke-linejoin="round"/>
<rect x="1.3551" y="14.644" width="19.7419" height="13.8305" stroke="white" stroke-width="2" stroke-linecap="round" stroke-linejoin="round"/>
<rect x="35.9032" y="14.644" width="19.7419" height="13.8305" stroke="white" stroke-width="2" stroke-linecap="round" stroke-linejoin="round"/>
<path d="M21.0964 52.5L21.0967 14.6441L35.9032 14.6441L35.9029 52.5L21.0964 52.5Z" stroke="white" stroke-width="2" stroke-linecap="round" stroke-linejoin="round"/>
<path d="M27.6774 13.7797C30.1451 6.86446 33.5999 4.27124 37.5483 4.27124C42.4838 4.27124 44.129 6.00005 44.129 8.59327C44.129 10.6679 42.4838 12.9153 41.6612 13.7797" stroke="white" stroke-width="2" stroke-linecap="round" stroke-linejoin="round"/>
<path d="M27.6774 13.7797C25.2096 6.86446 21.7548 4.27124 17.8064 4.27124C12.8709 4.27124 11.2258 6.00005 11.2258 8.59327C11.2258 10.6679 12.8709 12.9153 13.6935 13.7797" stroke="white" stroke-width="2" stroke-linecap="round" stroke-linejoin="round"/>
<path d="M27.6772 10.5085C30.145 3.59322 33.5998 1 37.5482 1C42.4837 1 44.1289 2.72881 44.1289 5.32203C44.1289 7.39661 42.3226 13.1356 41.5 14" stroke="white" stroke-width="2" stroke-linecap="round" stroke-linejoin="round"/>
<path d="M27.6772 10.5085C25.2095 3.59322 21.7547 1 17.8063 1C12.8708 1 11.2256 2.72881 11.2256 5.32203C11.2256 7.39661 12.6774 12.6356 13.5 13.5" stroke="white" stroke-width="2" stroke-linecap="round" stroke-linejoin="round"/>
<path d="M35.9032 28.4746H52.3548V52.5H35.9032L35.9032 28.4746Z" stroke="white" stroke-width="2" stroke-linecap="round" stroke-linejoin="round"/>
<path d="M26 15V52.5" stroke="white" stroke-width="2"/>
<path d="M31 15V52.5" stroke="white" stroke-width="2"/>
</svg>
