<svg width="24" height="19" viewBox="0 0 24 19" fill="none" xmlns="http://www.w3.org/2000/svg">
<path d="M7.16514 5.4426L4.76315 3.04076C6.49527 1.63284 8.57656 0.770795 10.7968 0.541603V5.35425C10.2661 5.22142 9.7112 5.15082 9.14056 5.15082C8.45437 5.15082 7.79099 5.25302 7.16514 5.4426Z" stroke="#002C5F"/>
<path d="M13.2031 0.541599C15.2967 0.757705 17.2665 1.5365 18.9366 2.80493L14.0631 7.25133C13.7982 6.97579 13.5106 6.72243 13.2031 6.49424V0.541599Z" stroke="#002C5F"/>
<path d="M2.3125 12.1823H0.5V11.9792C0.5 9.31083 1.40224 6.78388 3.06182 4.74238L4.92825 6.60881C3.33773 7.85897 2.3125 9.80089 2.3125 11.9792V12.1823Z" stroke="#002C5F"/>
<path d="M23.5 11.9791V12.1823H21.4008L23.3393 10.048C23.4456 10.6797 23.5 11.3251 23.5 11.9791Z" stroke="#002C5F"/>
<path d="M10.3644 13.8832C10.3644 13.8832 10.3644 13.8831 10.3644 13.8831C10.8018 13.4457 11.381 13.2058 11.9997 13.2058C12.6182 13.2058 13.1974 13.4457 13.6348 13.8832C14.5362 14.7845 14.5362 16.2521 13.6348 17.1535C13.1974 17.5909 12.6182 17.8308 11.9997 17.8308C11.381 17.8308 10.8018 17.5909 10.3644 17.1535C9.46318 16.2521 9.46318 14.7845 10.3644 13.8832Z" stroke="#002C5F"/>
<path d="M15.3363 12.1817L15.3362 12.1816C14.8078 11.6533 14.1747 11.2651 13.4837 11.037L21.2025 3.99475H23.4999V6.29189L16.4753 14.0264C16.2517 13.3518 15.8721 12.7176 15.3363 12.1817Z" stroke="#002C5F"/>
</svg>
