<svg width="25" height="26" viewBox="0 0 25 26" fill="none" xmlns="http://www.w3.org/2000/svg">
<path d="M23.329 15.4428C22.8459 20.2085 18.9063 24.0389 14.0407 24.4771C8.28891 24.9952 3.38431 20.8501 2.81541 15.4628H1.80173C1.18545 15.4628 0.800287 14.8087 1.10848 14.2856L3.37557 10.4377C3.68373 9.91469 4.45399 9.91472 4.7621 10.4377L7.02876 14.2858C7.33688 14.8088 6.95171 15.4628 6.33548 15.4628H5.453C6.0263 19.4851 9.84684 22.5017 14.2273 21.8724C17.4687 21.4068 20.0979 18.9002 20.6489 15.7349C21.4736 10.9972 17.754 6.87387 13.0706 6.87387C11.5518 6.87387 10.0859 7.30579 8.82673 8.12368C8.24234 8.50323 7.43224 8.42814 7.00351 7.8845C6.53671 7.29256 6.68245 6.44755 7.30493 6.03554C8.65592 5.14099 10.1875 4.58194 11.7921 4.38727V2.92872H10.7419C10.3806 2.92872 10.0876 2.64161 10.0876 2.28742V1.64129C10.0876 1.28709 10.3805 1 10.7419 1H15.6123C15.9736 1 16.2665 1.28709 16.2665 1.64129V2.28742C16.2665 2.64157 15.9737 2.92872 15.6123 2.92872H14.4555V4.40249C19.8216 5.11216 23.8926 9.88037 23.329 15.4428ZM23.6677 5.73742L21.6949 3.95011C21.4297 3.7097 21.0157 3.72565 20.7704 3.98573L20.2485 4.53913C20.0032 4.7992 20.0195 5.20494 20.2849 5.44537L22.2577 7.23265C22.5231 7.473 22.937 7.4571 23.1823 7.19702L23.7041 6.64363C23.9494 6.38355 23.9331 5.97781 23.6677 5.73742ZM13.0396 8.19228V14.4643H19.3747C19.3748 10.6447 16.4181 8.19228 13.0396 8.19228Z" stroke="#002C5F"/>
</svg>
